<?xml version="1.0" encoding="UTF-8"?>
<svg id="Livello_2" xmlns="http://www.w3.org/2000/svg" viewBox="0 0 369.38 109.32">
  <defs></defs>
  <g id="Livello_1-2" data-name="Livello_1">
    <g>
      <path class="cls-1" d="M292.39,59.37h-2.64c-1.55,0-1.92-.62-2.06-1.08-.19-.62-.42-2.55-.42-8.25v-4.41c0-3.35-.15-5.85-.45-7.42-.46-2.38-1.6-4.25-3.39-5.58-1.77-1.31-4.06-1.97-6.8-1.97-1.86,0-3.69.4-5.44,1.18-1.62.75-3.03,2.01-4.2,3.75v-1.39c0-1.52-.13-1.99-.24-2.23-.15-.32-.52-.7-1.41-.7-.24,0-.61.03-1.11.09-.46.06-.79.09-.99.09h-1.05c-.39,0-.8-.02-1.22-.06-.91-.08-1.48-.12-1.75-.12-1.38,0-1.49.97-1.49,1.27,0,.38.16,1.27,1.63,1.27h0l1.66-.12c1.22-.1,1.64-.12,1.78-.12.73,0,1.04.13,1.16.21.08.06.51.47.61,3.17v13.1c0,5.7-.23,7.63-.42,8.25-.08.27-.33,1.08-2.12,1.08h-2.59c-1.54,0-1.71.84-1.71,1.21s.15,1.15,1.54,1.15l4.41-.36h4.15s4.18.36,4.18.36l.04-.39v.4h.23c1.38,0,1.49-.92,1.49-1.21,0-.43-.22-1.15-1.71-1.15h-2.59c-1.55,0-1.92-.62-2.06-1.08-.19-.62-.42-2.55-.42-8.25v-5.18c0-3.17.34-5.48,1-6.88,1.61-3.46,4.37-5.14,8.42-5.14,3.3,0,5.58,1.02,6.97,3.11.97,1.46,1.46,4.7,1.46,9.62v4.47c0,5.75-.21,7.68-.39,8.29-.08.26-.31,1.04-2.09,1.04h-2.59c-1.54,0-1.71.84-1.71,1.21s.15,1.15,1.49,1.15l4.41-.36h4.15s4.28.36,4.28.36h.17c1.39,0,1.54-.84,1.54-1.21,0-.43-.22-1.15-1.71-1.15Z"></path>
      <path class="cls-1" d="M322.42,51.09c-.29,0-.55.11-.75.32-.34.35-.49.97-.46,1.91v2.92c0,3.51-1.45,3.91-2.54,3.91-.56,0-2.27,0-2.42-4.33v-14.83c0-3.58-.96-6.27-2.87-8-1.74-1.55-4.13-2.33-7.11-2.33s-5.41.76-7.38,2.24c-2.01,1.52-3.03,3.46-3.03,5.76,0,1.07.35,2.01,1.03,2.8.7.8,1.56,1.21,2.55,1.21.83,0,1.55-.3,2.14-.89.59-.59.89-1.3.89-2.11,0-2.09-1.35-2.4-2.15-2.4-.92,0-1.59.44-1.93,1.27,0-.04,0-.08,0-.12,0-1.59.72-2.88,2.21-3.95,1.52-1.09,3.48-1.64,5.84-1.64,2.23,0,4.05.57,5.39,1.7,1.34,1.12,1.99,2.57,1.99,4.42s-.58,3.07-1.78,3.91c-1.25.88-3.34,1.42-6.23,1.61-1.82.12-3.43.32-4.79.61-2.06.46-3.74,1.48-4.99,3.03-1.25,1.55-1.88,3.42-1.88,5.55,0,2.56.89,4.66,2.63,6.26,1.73,1.59,4.01,2.39,6.76,2.39,3.5,0,6.47-1.28,8.83-3.79.56-.61,1.05-1.21,1.45-1.8.29,4.62,2.76,5.59,4.78,5.59,3.17,0,4.84-2.41,4.96-7.17v-2.38c0-1.47-.73-1.69-1.16-1.69ZM303.8,60.14c-2.07,0-3.79-.62-5.12-1.84-1.34-1.22-1.99-2.72-1.99-4.58,0-1.59.41-2.93,1.22-3.99.71-.95,1.61-1.64,2.67-2.04,1.11-.42,2.83-.71,5.12-.86,4.16-.29,6.82-1.22,8.12-2.85v5.28c0,3-.98,5.59-2.93,7.71-1.93,2.11-4.32,3.18-7.1,3.18Z"></path>
      <path class="cls-1" d="M145.78,95.93v-7.12h1.08v7.12h-1.08Z"></path>
      <path class="cls-1" d="M150.66,95.93v-7.12h1.08v6.2h3.14v.93h-4.22Z"></path>
      <path class="cls-1" d="M165.4,89.73v6.2h-1.08v-6.2h-2.29v-.93h5.66v.93h-2.29Z"></path>
      <path class="cls-1" d="M173.61,96.06c-1.66,0-2.9-.98-2.9-2.65v-4.61h1.08v4.5c0,1.06.59,1.8,1.83,1.8s1.84-.74,1.84-1.8v-4.5h1.05v4.61c0,1.66-1.24,2.65-2.9,2.65Z"></path>
      <path class="cls-1" d="M183.69,96.06c-1.9,0-3.77-1.4-3.77-3.71s1.88-3.7,3.77-3.7,3.77,1.41,3.77,3.7-1.88,3.71-3.77,3.71ZM183.69,89.62c-1.32,0-2.68.99-2.68,2.76s1.36,2.77,2.68,2.77,2.68-1.01,2.68-2.77-1.38-2.76-2.68-2.76Z"></path>
      <path class="cls-1" d="M197.93,92.8h-1.18v3.13h-1.07v-7.12h2.26c1,0,2.14.65,2.14,2s-1.14,2-2.14,2ZM197.74,89.74h-.99v2.17h.99c.64,0,1.23-.33,1.23-1.08s-.59-1.08-1.23-1.08Z"></path>
      <path class="cls-1" d="M206.32,96.06c-1.66,0-2.9-.98-2.9-2.65v-4.61h1.08v4.5c0,1.06.59,1.8,1.83,1.8s1.84-.74,1.84-1.8v-4.5h1.05v4.61c0,1.66-1.24,2.65-2.9,2.65Z"></path>
      <path class="cls-1" d="M218.97,96.08l-3.34-3.65c-.54-.58-1.15-1.3-1.64-1.88h-.02c.02.66.02,1.26.02,1.8v3.57h-1.08v-7.12h.75l3.06,3.35c.41.46,1.06,1.17,1.5,1.71h.02c-.02-.56-.02-1.17-.02-1.69v-3.37h1.08v7.28h-.32Z"></path>
      <path class="cls-1" d="M225.68,89.73v6.2h-1.08v-6.2h-2.29v-.93h5.66v.93h-2.29Z"></path>
      <path class="cls-1" d="M234.13,96.06c-1.9,0-3.77-1.4-3.77-3.71s1.88-3.7,3.77-3.7,3.77,1.41,3.77,3.7-1.88,3.71-3.77,3.71ZM234.13,89.62c-1.32,0-2.68.99-2.68,2.76s1.36,2.77,2.68,2.77,2.68-1.01,2.68-2.77-1.38-2.76-2.68-2.76Z"></path>
      <path class="cls-1" d="M289.3,95.93h-2.19v-7.12h2.19c1.99,0,3.85,1.26,3.85,3.56s-1.86,3.56-3.85,3.56ZM289.11,89.73h-.9v5.29h.9c1.61,0,2.94-.84,2.94-2.65s-1.33-2.65-2.94-2.65Z"></path>
      <path class="cls-1" d="M296.67,95.93v-7.12h1.08v7.12h-1.08Z"></path>
      <path class="cls-1" d="M308.61,92.8h-1.18v3.13h-1.07v-7.12h2.26c1,0,2.14.65,2.14,2s-1.14,2-2.14,2ZM308.42,89.74h-.99v2.17h.99c.64,0,1.23-.33,1.23-1.08s-.59-1.08-1.23-1.08Z"></path>
      <path class="cls-1" d="M318.2,95.93l-.77-1.84h-2.77l-.77,1.84h-1.06l3.04-7.23h.39l3.04,7.23h-1.09ZM316.36,91.48c-.1-.23-.21-.57-.3-.87h-.02c-.08.3-.2.64-.3.87l-.7,1.74h2.03l-.7-1.74Z"></path>
      <path class="cls-1" d="M326.61,95.93l-2.24-3.13h-.82v3.13h-1.07v-7.12h2.14c1,0,2.14.65,2.14,2,0,.95-.56,1.55-1.25,1.83l2.44,3.29h-1.34ZM324.43,89.74h-.88v2.17h.88c.64,0,1.23-.33,1.23-1.08s-.59-1.08-1.23-1.08Z"></path>
      <path class="cls-1" d="M332.62,89.73v6.2h-1.08v-6.2h-2.29v-.93h5.66v.93h-2.29Z"></path>
      <path class="cls-1" d="M337.92,95.93v-7.12h3.84v.93h-2.76v2.16h2.31v.93h-2.31v2.19h3.15v.93h-4.23Z"></path>
      <path class="cls-1" d="M351.23,96.08l-3.34-3.65c-.54-.58-1.15-1.3-1.64-1.88h-.02c.02.66.02,1.26.02,1.8v3.57h-1.08v-7.12h.75l3.06,3.35c.41.46,1.06,1.17,1.5,1.71h.02c-.02-.56-.02-1.17-.02-1.69v-3.37h1.08v7.28h-.32Z"></path>
      <path class="cls-1" d="M354.96,95.93v-.26l2.27-3.96c.37-.64.83-1.42,1.17-1.97h-.01s-3.25-.01-3.25-.01v-.93h4.75v.26l-2.29,3.98c-.37.64-.82,1.38-1.16,1.95h.01s3.56.01,3.56.01v.93h-5.05Z"></path>
      <path class="cls-1" d="M368.28,95.93l-.77-1.84h-2.77l-.77,1.84h-1.06l3.04-7.23h.39l3.04,7.23h-1.09ZM366.44,91.48c-.1-.23-.21-.57-.3-.87h-.02c-.08.3-.2.64-.3.87l-.7,1.74h2.03l-.7-1.74Z"></path>
      <path class="cls-1" d="M339.06,49.29c-1.99-.09-3.91.59-5.38,1.93-1.48,1.34-2.34,3.18-2.44,5.17-.06,1.2.17,2.37.66,3.44-6.07,5.11-12.71,9.54-20.17,12.37-12.22,4.63-24.88,4.55-37.68,3.07-.94-.11-2.15.81-2.31,1.76-.56,3.46,1.23,5.72,3.43,8.17,1.08,1.2,2.65,2.68,2.17,4.47-.59,2.2-3.77,3.36-5.65,4.02-8.15,2.86-17.88,2.14-25.65-1.75,4.61-3.31,9.65-5.61,14.89-7.85.94-.4.21-1.66-.64-1.53-6.46,1.04-12.6,4.21-17.9,7.96-.73.51-1.11,1.47-.6,2.29,3.72,6.04,8.19,11.34,13.61,15.94,2.16,1.83,5.28-1.37,3.09-3.09-4.54-3.57-8.68-7.71-12.18-12.31,8.17,4.86,17.8,6.3,27.11,3.38,3.88-1.22,8.35-3.83,8.03-8.5-.14-1.96-1.23-3.64-2.4-5.14-.54-.7-1.47-1.61-2.1-2.57,12.18,1.66,24.94.92,36.48-3.41,8.28-3.11,15.63-7.89,22.36-13.49.8.34,1.66.55,2.56.59.12,0,.24,0,.36,0,3.96,0,7.27-3.12,7.46-7.11.2-4.12-2.99-7.62-7.11-7.82Z"></path>
      <path class="cls-2" d="M255.9,42.29c-2.69-4.24-6.37-13.96-7.96-18.3v37.62h5.16c0-6.06-.34-14.48,2.8-19.32Z"></path>
      <path class="cls-2" d="M245.52,61.61V23.99c-1.58,4.34-5.27,14.06-7.96,18.3,3.14,4.84,2.8,13.26,2.8,19.32h5.16Z"></path>
      <path class="cls-1" d="M234.94,27.17c-.54,0-1.8.2-1.8,2.07,0,1.41.75,2.19,2.11,2.19,1.76,0,2.81-1.87,2.75-3.48,0-.03,0-.07,0-.1-.16-2.4-2.29-4-4.59-4-1.53,0-2.82.49-3.84,1.44-1.03.97-1.55,2.18-1.55,3.61,0,.19.02.4.04.63-1.91-.99-3.76-1.5-5.54-1.5-2.9,0-5.34.97-7.23,2.88-1.9,1.91-2.86,4.37-2.86,7.3,0,1.27.24,2.54.73,3.81-2.42.8-3.64,2.34-3.64,4.58,0,2.61,1.4,4.34,4.16,5.17-1.08.5-1.99,1.09-2.74,1.74l-.05.04v-.58l-.11.1c-1.18,1.04-1.96,2.26-2.33,3.65,0,0,0,.01,0,.02-.02.13-.04.25-.06.37-.04.18-.08.35-.13.5-.47,1.5-1.46,1.72-2.26,1.72-.56,0-2.27,0-2.42-4.33v-14.83c0-3.58-.97-6.27-2.87-7.99-1.74-1.55-4.13-2.33-7.11-2.33s-5.41.75-7.38,2.24c-.99.75-1.73,1.6-2.24,2.54.05-2.02-.16-4.16-.67-6.44-1.13-5.04-3.22-8.83-6.21-11.27-3.03-2.47-6.6-3.27-10.61-2.37-4.45,1-7.42,3.65-8.87,7.89l-.69-3.09c-.13-.58-.38-1.01-.74-1.27-.38-.28-.86-.35-1.41-.23-.33.07-.8.2-1.42.39-.59.18-1.04.3-1.35.37l-2.05.46-1.8.27-.18.04c-.97.22-1.43.86-1.24,1.72.09.41.48,1.34,2.08.97l1.8-.54c1.34-.47,1.75-.59,1.88-.62.79-.18,1.17-.11,1.32-.05.11.04.67.39,1.43,3.29.08.34.38,1.69.91,4.05l5,22.32c1.38,6.17,1.6,8.32,1.54,9.04-.02.31-.1,1.25-1.99,1.67-.27.06-.69.13-1.27.22-.55.08-.97.15-1.26.21-.15-.01-.28,0-.4.02-.55.12-.94.31-1.21.58-.32.32-.44.75-.34,1.21.1.44.35.68.54.8.22.14.48.21.8.21.19,0,.4-.03.63-.08l2.24-.84,9.43-2.11,2.12-.14.26-.05c.49-.11.85-.29,1.09-.54.28-.3.39-.71.29-1.14-.13-.58-.5-.84-.79-.95-.35-.14-.77-.14-1.3-.02-.18.04-.33.1-.45.17-.29.07-.67.18-1.17.33-.53.16-.93.27-1.2.33-1.67.37-2.23-.22-2.5-.7-.36-.64-1.08-2.71-2.47-8.92l-.77-3.44c2.85,2.63,6.36,3.5,10.46,2.58,4.13-.92,7.14-3.34,8.94-7.19.41-.86.72-1.77.98-2.72.16.58.44,1.12.85,1.6.71.8,1.56,1.21,2.55,1.21.83,0,1.55-.3,2.14-.89.59-.59.89-1.3.89-2.11,0-2.09-1.35-2.41-2.15-2.41-.92,0-1.58.44-1.92,1.27,0-.03,0-.08,0-.12,0-1.59.72-2.88,2.21-3.94,1.52-1.09,3.48-1.63,5.84-1.63,2.24,0,4.05.57,5.4,1.7,1.34,1.12,1.98,2.57,1.98,4.41s-.58,3.07-1.78,3.91c-1.25.87-3.34,1.42-6.23,1.61-1.82.12-3.43.33-4.79.61-2.06.46-3.74,1.48-4.98,3.03-1.25,1.55-1.88,3.43-1.88,5.55,0,2.56.89,4.66,2.63,6.27,1.73,1.59,4.01,2.39,6.77,2.39,3.5,0,6.46-1.28,8.82-3.8.56-.61,1.05-1.21,1.46-1.8.29,4.62,2.75,5.59,4.78,5.59.94,0,1.74-.21,2.41-.63.03.17.05.35.09.51.08.29.16.58.27.85.59,1.55,1.72,2.83,3.37,3.83,2.49,1.5,6.02,2.26,10.49,2.26s8.07-.77,10.51-2.3c2.49-1.57,3.76-3.88,3.76-6.86,0-3.43-1.66-5.9-4.93-7.35-2.06-.9-5.28-1.39-9.6-1.47h-3.74c-4.45-.08-6.61-1.28-6.61-3.67,0-.76.22-1.35.66-1.8.44-.45,1-.67,1.72-.67h.11c2.04,2.12,4.74,3.2,8.03,3.2,3,0,5.46-.89,7.33-2.64,1.86-1.76,2.82-4.1,2.82-6.97,0-1.62-.32-3.13-.95-4.48l-1.05-2.29c-.25-.54-.38-1.09-.38-1.63,0-1.02.29-1.81.87-2.41.58-.6,1.35-.89,2.36-.89.61,0,1.12.14,1.56.43.49.33.54.62.55.76h-.03c-.44-.13-.52-.14-.6-.14ZM180.14,40.82c-1.37,3.11-3.65,4.98-6.97,5.73-3.1.69-5.8.06-8.27-1.93-1.37-1.09-2.45-2.73-3.21-4.88-.33-.93-.85-2.99-1.56-6.15-.65-2.91-.96-5.19-.92-6.8.04-1.57.46-3.17,1.25-4.77,1.32-2.75,3.49-4.42,6.62-5.13.87-.2,1.71-.29,2.5-.29,2.24,0,4.19.77,5.92,2.33,2.37,2.13,4.11,5.61,5.16,10.32,1.02,4.54.84,8.43-.54,11.56ZM201.14,48.45c0,3-.98,5.59-2.93,7.71-1.93,2.11-4.32,3.17-7.1,3.17-2.07,0-3.79-.61-5.12-1.84-1.34-1.22-1.99-2.72-1.99-4.58,0-1.59.41-2.93,1.22-3.99.71-.95,1.61-1.64,2.67-2.04,1.11-.42,2.83-.71,5.12-.86,4.16-.29,6.82-1.22,8.12-2.86v5.28ZM222,52.46c8.35,0,12.41,2.24,12.41,6.84,0,2.2-.97,3.87-2.96,5.08-2.05,1.24-4.98,1.87-8.71,1.87-3.95,0-7.01-.61-9.09-1.82-2.03-1.18-3.01-2.8-3.01-4.96s.94-3.93,2.87-5.14c1.97-1.24,4.83-1.87,8.49-1.87ZM228.11,43.31c-1.38,1.35-3.26,2.04-5.58,2.04s-4.21-.67-5.59-1.98c-1.4-1.32-2.07-3.07-2.07-5.32,0-2.37.72-4.31,2.13-5.75,1.42-1.44,3.31-2.17,5.64-2.17s4.14.7,5.5,2.08c1.36,1.39,2.06,3.28,2.06,5.61s-.7,4.14-2.08,5.49Z"></path>
      <g>
        <path class="cls-3" d="M73.35,13.72h-21.64c-.52,0-.79.27-.79.79v1.06c0,.52.27.79.79.79h8.84c.14,0,.2.06.2.2v46.04c0,.52.27.79.79.79h1.34c.52,0,.79-.27.79-.79V16.56c0-.14.06-.2.2-.2h9.48c.52,0,.79-.27.79-.79v-1.06c0-.52-.27-.79-.79-.79Z"></path>
        <rect class="cls-3" x="79.88" y="13.72" width="2.92" height="49.67" rx=".79" ry=".79"></rect>
        <path class="cls-3" d="M115.57,13.72h-1.49c-.41,0-.7.21-.85.61l-8.84,20.36c-.04.08-.1.1-.14.1-.06,0-.11-.03-.14-.09l-8.98-20.36c-.15-.41-.44-.62-.85-.62h-1.41c-.52,0-.79.27-.79.79v48.09c0,.52.27.79.79.79h1.34c.52,0,.79-.27.79-.79V20.94c0-.13.04-.13.06-.13.04,0,.1.01.14.09l8.2,18.67c.15.41.44.62.86.62s.7-.21.85-.61l8.13-18.81c.03-.07.07-.1.14-.1.02,0,.06,0,.06.13v41.79c0,.52.27.79.79.79h1.34c.52,0,.79-.27.79-.79V14.51c0-.52-.27-.79-.79-.79Z"></path>
        <path class="cls-3" d="M147.83,62.56l-10.82-48.08c-.05-.46-.35-.71-.86-.71h-1.77c-.46,0-.76.24-.86.7l-10.75,48.09c-.05.26,0,.47.12.63.13.16.33.24.59.24h1.34c.51,0,.81-.25.86-.7l2.05-9.63c0-.07.02-.11.07-.14.06-.04.13-.06.2-.06h14.57c.08,0,.14.02.2.06.05.03.07.08.07.16l2.05,9.62h0c.1.46.4.7.86.7h1.34c.47,0,.72-.25.72-.72v-.16ZM135.24,18.62c.03-.08.05-.12.06-.14.01.02.04.06.06.14l6.86,31.61v.02s.02.02.02.02c.01.01.02.02,0,.07-.03.05-.08.07-.14.07h-13.58c-.07,0-.11-.02-.14-.07s-.02-.06,0-.07l.02-.02,6.86-31.62Z"></path>
        <path class="cls-3" d="M54.84,60.31c-.13-.19-.34-.3-.65-.3h-16.76c-.13,0-.18-.06-.19-.17V13.71c0-.52-.27-.79-.79-.79h-1.35c-.52,0-.79.27-.79.79v48.27c0,.52.27.79.79.79h19.16c.52,0,.79-.27.79-.79v-1.06c0-.27-.08-.47-.22-.6Z"></path>
      </g>
      <path class="cls-3" d="M27.62,13.76h-1.43c-.16,0-.28.03-.39.08-.4.05-.62.28-.62.73-.58,11.84-1.05,23.7-1.67,35.52-.16,3.13-1.18,6.28-3.29,8.66-.26.29-.54.56-.84.82,0,0,0,0,0,0-.91.79-1.99,1.41-3.15,1.84-1.43.54-2.99.8-4.52.73-1.24-.05-2.47-.33-3.58-.84-.24-.11-.48-.24-.71-.37-.73-.45-1.4-1.01-1.96-1.71-1.66-2.04-2.33-4.71-2.33-8.03l-.04-41.46c.02-2.9,1.37-4.86,3.15-5.84.83-.42,1.74-.63,2.65-.63h.02c2.5.02,6.81,1.77,6.77,6.64l-.25,31.63c-.02,2.75-1.86,2.95-2.44,2.95-.14,0-.28-.01-.43-.04-1-.24-2.1-1.03-2.09-2.68.03-4.11.07-8.22.09-12.33.02-2.31,0-4.62.07-6.93.03-.97-1.03-2.27-2.05-1.98-.24.02-.47.12-.7.33-.83.77-.4,3.55-.41,4.56-.02,2.32-.03,4.65-.05,6.97-.02,3.11-.05,6.21-.07,9.31-.03,3.03,1.91,5.07,4.15,5.71.54.18,1.1.27,1.66.28h.02c2.58.01,5.36-1.89,5.4-6.09l.25-31.76C18.88,3.13,13.16.03,9.13,0h-.03c-1.64,0-3.32.48-4.78,1.44C1.89,2.96.04,5.78,0,9.78,0,11.47,0,50.81,0,50.81c0,4.21.96,7.59,3.14,10.14.43.5.94.94,1.51,1.34.5.37,1.05.7,1.64,1,.77.39,1.61.71,2.47.95,1.53.45,3.16.67,4.65.67,2.53,0,4.87-.87,6.85-2.28.7-.5,1.36-1.07,1.97-1.7,1.03-1.06,1.91-2.29,2.59-3.6,1.86-3.54,1.8-7.3,1.99-11.18.38-7.58.75-15.15,1.12-22.73.15-2.98.29-5.95.44-8.92,0-.5-.25-.75-.75-.75Z"></path>
    </g>
  </g>
</svg>